<?xml version="1.0" standalone="no"?>
<!DOCTYPE svg PUBLIC "-//W3C//DTD SVG 1.1//EN" "http://www.w3.org/Graphics/SVG/1.1/DTD/svg11.dtd" >
<svg xmlns="http://www.w3.org/2000/svg" xmlns:xlink="http://www.w3.org/1999/xlink" version="1.1">
<metadata></metadata>
<defs>
<font id="fabrikat_monoblack" horiz-adv-x="550" >
<font-face units-per-em="1000" ascent="815" descent="-185" />
<missing-glyph horiz-adv-x="500" />
<glyph horiz-adv-x="0" />
<glyph horiz-adv-x="333" />
<glyph unicode="&#xd;" />
<glyph unicode=" " />
<glyph unicode="!" d="M265 711h20v-512h-20v512zM305 60v-60h-60v60h60z" />
<glyph unicode="&#x22;" d="M195 711h20v-211h-20v211zM335 711h20v-211h-20v211z" />
<glyph unicode="#" d="M486 501h-84l-34 -242h84l-2 -20h-84l-34 -239h-20l34 239h-180l-34 -239h-20l34 239h-84l2 20h84l34 242h-84l3 20h84l27 190h20l-27 -190h180l27 190h20l-27 -190h84zM348 259l34 242h-180l-34 -242h180z" />
<glyph unicode="$" d="M455 166q0 -73 -48.5 -122.5t-122.5 -53.5v-110h-20v110q-74 4 -122.5 54.5t-48.5 123.5v54h20v-54q0 -65 43 -109.5t108 -48.5v347q-84 27 -121.5 72.5t-37.5 122.5q0 72 45 119.5t114 49.5v110h20v-110q77 -5 120 -54t43 -134v-38h-20v38q0 77 -37 120t-106 48v-329 q93 -30 132 -77t39 -129zM126 552q0 -68 31.5 -107.5t106.5 -65.5v322q-61 -2 -99.5 -43.5t-38.5 -105.5zM284 10q65 3 108 47.5t43 108.5q0 73 -34 114.5t-117 70.5v-341z" />
<glyph unicode="%" d="M269 689l247 -181l-406 -290l-12 16l385 274l-182 133q5 -18 5 -35q0 -47 -31.5 -78.5t-78.5 -31.5t-78 31.5t-31 78.5q0 46 31.5 77.5t77.5 31.5q42 0 73 -26zM286 606q0 40 -27 65l-2 2q-25 23 -61 23q-38 0 -64 -26t-26 -64q0 -39 26 -64.5t64 -25.5q39 0 64.5 25.5 t25.5 64.5zM356 214q47 0 78.5 -31.5t31.5 -78.5t-31.5 -78t-78.5 -31q-46 0 -77.5 31.5t-31.5 77.5q0 47 31 78.5t78 31.5zM356 14q39 0 64.5 26t25.5 64q0 39 -25.5 64.5t-64.5 25.5q-38 0 -64 -25.5t-26 -64.5q0 -38 26 -64t64 -26z" />
<glyph unicode="&#x26;" d="M529 0h-25l-110 134q-38 -68 -83 -106t-109 -38q-70 0 -114 41t-44 106q0 61 27 105.5t84 94.5l41 37q-64 75 -87.5 115t-23.5 90q0 62 39.5 101.5t102.5 39.5q60 0 101.5 -40t41.5 -98q0 -37 -21 -75t-43 -60.5t-66 -61.5l-16 -14q37 -42 68 -81l99 -121q2 5 6.5 13.5 t8.5 16t7 14.5l73 151h22l-77 -159q-22 -44 -27 -53zM105 579q0 -45 22 -82t84 -110l16 14q44 40 64 59.5t39.5 53.5t19.5 67q0 50 -35.5 84.5t-87.5 34.5q-55 0 -88.5 -33.5t-33.5 -87.5zM202 10q59 0 100.5 36.5t78.5 103.5l-106 130q-14 18 -37.5 45.5t-27.5 32.5 l-42 -37q-55 -48 -79.5 -88t-24.5 -96t38.5 -91.5t99.5 -35.5z" />
<glyph unicode="'" d="M265 711h20v-211h-20v211z" />
<glyph unicode="(" d="M253 28q0 -44 24 -68.5t67 -24.5h86v-20h-88q-50 0 -79.5 30.5t-29.5 80.5v639q0 50 29.5 80.5t79.5 30.5h88v-20h-86q-43 0 -67 -24.5t-24 -68.5v-635z" />
<glyph unicode=")" d="M306 28v635q0 44 -24 68.5t-67 24.5h-86v20h88q50 0 79.5 -30.5t29.5 -80.5v-639q0 -50 -29.5 -80.5t-79.5 -30.5h-88v20h86q43 0 67 24.5t24 68.5z" />
<glyph unicode="*" d="M391 638l-98 -55l98 -55l-10 -18l-97 57l1 -112h-20l1 112l-97 -57l-10 18l97 55l-97 55l10 18l97 -57l-1 112h20l-1 -112l97 57z" />
<glyph unicode="+" d="M422 331v-20h-138v-143h-20v143h-137v20h137v143h20v-143h138z" />
<glyph unicode="," d="M245 60h60v-54l-52 -166h-20l49 160h-37v60z" />
<glyph unicode="-" d="M142 331h267v-20h-267v20z" />
<glyph unicode="." d="M305 60v-60h-60v60h60z" />
<glyph unicode="/" d="M464 776h22l-400 -861h-22z" />
<glyph unicode="0" d="M275 721q84 0 134.5 -53.5t50.5 -142.5v-338q0 -89 -50.5 -143t-134.5 -54q-83 0 -133.5 54t-50.5 143v338q0 89 50.5 142.5t133.5 53.5zM275 701q-75 0 -119.5 -48t-44.5 -128v-260l329 226v34q0 81 -44.5 128.5t-120.5 47.5zM275 10q76 0 120.5 48t44.5 129v280 l-329 -226v-54q0 -81 44.5 -129t119.5 -48z" />
<glyph unicode="1" d="M457 20v-20h-332v20h162v671h-174v20h194v-691h150z" />
<glyph unicode="2" d="M186 20h317v-20h-344v17l275 406q36 54 36 115q0 72 -43 118t-111 46t-111.5 -46t-43.5 -118v-24h-20v24q0 80 49.5 132t125.5 52t125 -52t49 -132q0 -70 -39 -126z" />
<glyph unicode="3" d="M316 400q82 0 131.5 -51.5t49.5 -135.5v-36q0 -85 -49.5 -136t-131.5 -51t-131 51t-49 136v13h20v-13q0 -77 43.5 -122t116.5 -45q74 0 117.5 45t43.5 122v36q0 77 -43.5 122t-117.5 45h-74v14l217 298h-305v20h332v-16l-214 -296h44z" />
<glyph unicode="4" d="M418 203h104v-20h-104v-183h-20v183h-286v14l244 515h23l-242 -509h261v207h20v-207z" />
<glyph unicode="5" d="M320 455q80 0 127.5 -51.5t47.5 -136.5v-90q0 -85 -49 -136t-131 -51q-84 0 -131.5 45.5t-47.5 122.5v1h20v-1q0 -69 41.5 -108.5t117.5 -39.5q73 0 116.5 45t43.5 122v90q0 77 -42 122.5t-113 45.5q-72 0 -115 -37.5t-43 -100.5v-12h-19v427h331v-20h-311v-314 q47 77 157 77z" />
<glyph unicode="6" d="M314 393q86 0 142 -56.5t56 -143.5q0 -88 -56 -145.5t-142 -57.5t-142.5 57.5t-56.5 145.5q0 59 30 109l251 410h24l-212 -346q46 27 106 27zM314 10q78 0 128 51.5t50 131.5q0 79 -50 130t-128 51t-128.5 -51t-50.5 -130q0 -80 50.5 -131.5t128.5 -51.5z" />
<glyph unicode="7" d="M453 711v-18l-109 -319h94v-20h-101l-121 -354h-21l121 354h-128v20h135l108 317h-314v-127h-20v147h356z" />
<glyph unicode="8" d="M337 364q61 -17 98 -66.5t37 -113.5q0 -84 -55.5 -139t-141.5 -55t-141 55t-55 139q0 64 36.5 113.5t97.5 66.5q-57 17 -91 63.5t-34 109.5q0 79 52.5 131.5t134.5 52.5t134.5 -52.5t52.5 -131.5q0 -63 -34 -109.5t-91 -63.5zM108 537q0 -72 46.5 -117.5t120.5 -45.5 t120.5 45.5t46.5 117.5q0 70 -47 117t-120 47t-120 -47t-47 -117zM275 10q77 0 127 48.5t50 125.5q0 73 -50 121.5t-127 48.5t-127 -48.5t-50 -121.5q0 -77 50 -125.5t127 -48.5z" />
<glyph unicode="9" d="M275 721q86 0 142.5 -57.5t56.5 -145.5q0 -59 -30 -109l-251 -410h-24l212 346q-47 -27 -106 -27q-86 0 -142 56.5t-56 143.5q0 88 56 145.5t142 57.5zM275 337q78 0 128.5 51t50.5 130q0 80 -50.5 131.5t-128.5 51.5t-128 -51.5t-50 -131.5q0 -79 50 -130t128 -51z" />
<glyph unicode=":" d="M304 536v-60h-60v60h60zM304 60v-60h-60v60h60z" />
<glyph unicode=";" d="M304 536v-60h-60v60h60zM251 60h60v-54l-52 -166h-20l49 160h-37v60z" />
<glyph unicode="&#x3c;" d="M123 312v18l279 145v-23l-253 -131l253 -132v-23z" />
<glyph unicode="=" d="M137 411h275v-20h-275v20zM137 251h275v-20h-275v20z" />
<glyph unicode="&#x3e;" d="M427 312l-279 -146v23l253 132l-253 131v23l279 -145v-18z" />
<glyph unicode="?" d="M266 721q72 0 114 -45.5t42 -122.5v-74q0 -70 -42.5 -114.5t-114.5 -44.5v-121h-20v141h20q65 0 101 38.5t36 102.5v70q0 70 -35.5 110t-100.5 40t-100.5 -37.5t-35.5 -98.5v-22h-20v24q0 69 42 111.5t114 42.5zM225 0v60h60v-60h-60z" />
<glyph unicode="@" d="M279 740q97 0 157 -64t60 -168v-437h-20v58q-35 -66 -119 -66q-65 0 -102 41.5t-37 110.5v149q0 65 36.5 105.5t99.5 40.5q89 0 122 -68v66q0 95 -54 153.5t-143 58.5q-92 0 -149 -58.5t-57 -154.5v-408q0 -113 71.5 -182.5t187.5 -69.5h127v-20h-127q-124 0 -201.5 75.5 t-77.5 196.5v408q0 104 62.5 168.5t163.5 64.5zM357 83q56 0 87.5 34.5t31.5 91.5v153q0 58 -31.5 93t-87.5 35q-57 0 -88 -35t-31 -93v-146q0 -62 31 -97.5t88 -35.5z" />
<glyph unicode="A" d="M465 0l-63 221h-255l-62 -221h-21l201 711h18l203 -711h-21zM153 241h244l-123 433z" />
<glyph unicode="B" d="M345 367q63 -17 99 -64.5t36 -114.5q0 -84 -53.5 -136t-140.5 -52h-170v711h156q87 0 140.5 -49t53.5 -128q0 -62 -32 -106t-89 -61zM272 691h-136v-317h136q78 0 126 44t48 116q0 71 -47.5 114t-126.5 43zM286 20q78 0 126 46.5t48 121.5q0 74 -47.5 120t-126.5 46h-150 v-334h150z" />
<glyph unicode="C" d="M468 224v-36q0 -89 -51.5 -143t-137.5 -54q-85 0 -136.5 55t-51.5 146v327q0 92 50.5 146.5t137.5 54.5q86 0 137 -51.5t51 -137.5v-25h-21v24q0 78 -45 124t-122 46q-79 0 -123.5 -49t-44.5 -134v-323q0 -84 45.5 -133.5t122.5 -49.5t123 48.5t46 129.5v35h20z" />
<glyph unicode="D" d="M100 711h157q97 0 154 -53.5t57 -142.5v-319q0 -89 -57 -142.5t-154 -53.5h-157v711zM120 691v-671h137q88 0 139.5 48t51.5 129v317q0 81 -51.5 129t-139.5 48h-137z" />
<glyph unicode="E" d="M461 691h-324v-317h307v-20h-307v-334h324v-20h-344v711h344v-20z" />
<glyph unicode="F" d="M471 691h-322v-317h301v-20h-301v-354h-20v711h342v-20z" />
<glyph unicode="G" d="M273 344h195l-1 -344h-20v100q-21 -52 -66 -80.5t-108 -28.5q-86 0 -138 55t-52 146v324q0 94 51.5 149t139.5 55q85 0 135 -51.5t50 -137.5v-24h-20v23q0 78 -44.5 124t-120.5 46q-79 0 -125 -49.5t-46 -135.5v-321q0 -84 46.5 -133.5t124.5 -49.5q79 0 126.5 48.5 t46.5 129.5l1 135h-175v20z" />
<glyph unicode="H" d="M436 710h20v-710h-20v354h-322v-354h-20v710h20v-336h322v336z" />
<glyph unicode="I" d="M442 690h-157v-670h157v-20h-334v20h157v670h-157v20h334v-20z" />
<glyph unicode="J" d="M443 710v-557q0 -74 -47.5 -118.5t-127.5 -44.5q-79 0 -126 44.5t-47 118.5v71h19v-70q0 -65 42 -104.5t112 -39.5q71 0 113 39.5t42 104.5v536h-301v20h321z" />
<glyph unicode="K" d="M479 0l-239 393l-101 -128v-265h-20v710h20v-413l325 413h25l-236 -300l250 -410h-24z" />
<glyph unicode="L" d="M166 711v-691h308v-20h-328v711h20z" />
<glyph unicode="M" d="M447 710h19v-710h-20v657l-167 -391h-8l-167 391v-657h-20v710h19l172 -403z" />
<glyph unicode="N" d="M436 711h21v-711h-18l-325 663v-663h-20v711h18l324 -661v661z" />
<glyph unicode="O" d="M275 720q88 0 141 -55.5t53 -146.5v-327q0 -91 -53 -146t-141 -55t-141 55t-53 146v327q0 91 53 146.5t141 55.5zM275 700q-79 0 -126.5 -50t-47.5 -134v-323q0 -84 47 -133.5t127 -49.5t127 49.5t47 133.5v323q0 84 -47.5 134t-126.5 50z" />
<glyph unicode="P" d="M292 711q87 0 140.5 -54t53.5 -142q0 -89 -53.5 -143.5t-140.5 -54.5h-148v-317h-20v711h168zM292 335q78 0 126 50t48 130t-47.5 128t-126.5 48h-148v-356h148z" />
<glyph unicode="Q" d="M275 720q88 0 141 -55.5t53 -146.5v-327q0 -87 -48.5 -141.5t-131.5 -59.5l100 -119h-26l-100 119q-83 4 -132.5 58.5t-49.5 142.5v327q0 91 53 146.5t141 55.5zM449 193v323q0 84 -47.5 134t-126.5 50t-126.5 -50t-47.5 -134v-323q0 -84 47 -133.5t127 -49.5t127 49.5 t47 133.5z" />
<glyph unicode="R" d="M455 0l-200 333h-131v-333h-20v711h161q87 0 141 -52t54 -135q0 -82 -50 -134t-132 -57l200 -333h-23zM124 691v-338h141q79 0 127 47t48 124q0 75 -48 121t-127 46h-141z" />
<glyph unicode="S" d="M439 495v28q0 85 -44 131.5t-124 46.5q-68 0 -112 -43t-44 -110q0 -64 30.5 -101t100.5 -60l71 -23q79 -26 114 -74.5t35 -120.5q0 -78 -52 -128.5t-138 -50.5t-139.5 54t-53.5 137v41h20v-41q0 -75 47.5 -123t125.5 -48q77 0 123.5 44.5t46.5 114.5q0 65 -32 108 t-105 68l-67 22q-77 26 -112 68.5t-35 112.5q0 75 50 124t126 49q89 0 138.5 -52t49.5 -146v-28h-20z" />
<glyph unicode="T" d="M487 710v-20h-202v-690h-20v690h-202v20h424z" />
<glyph unicode="U" d="M439 710h20v-528q0 -87 -50 -139t-135 -52q-83 0 -133 52.5t-50 138.5v528h20v-528q0 -78 44.5 -124.5t118.5 -46.5q75 0 120 46.5t45 124.5v528z" />
<glyph unicode="V" d="M466 711h22l-204 -711h-18l-204 711h21l192 -674z" />
<glyph unicode="W" d="M498 710h20l-106 -710h-20l-117 529l-117 -529h-20l-106 710h20l97 -655l117 526h18l117 -526z" />
<glyph unicode="X" d="M486 0h-24l-187 343l-187 -343h-24l199 365l-189 346h24l177 -324l177 324h24l-189 -346z" />
<glyph unicode="Y" d="M285 383v-363h165v-20h-350v20h165v361l-220 330h25l205 -309l204 309h25z" />
<glyph unicode="Z" d="M458 711v-16l-341 -675h341v-20h-366v16l341 675h-332v20h357z" />
<glyph unicode="[" d="M256 -65h177v-20h-197v861h197v-20h-177v-821z" />
<glyph unicode="\" d="M86 776l400 -861h-22l-400 861h22z" />
<glyph unicode="]" d="M313 755h-177v20h197v-861h-197v20h177v821z" />
<glyph unicode="^" d="M284 711l155 -279h-23l-141 254l-141 -254h-23l155 279h18z" />
<glyph unicode="_" d="M95 -149h360v-20h-360v20z" />
<glyph unicode="`" d="M172 729h23l75 -132h-23z" />
<glyph unicode="a" d="M267 530q77 0 122 -46.5t45 -121.5v-362h-20v73q-42 -83 -152 -83q-79 0 -124.5 43.5t-45.5 109.5q0 67 45.5 110.5t124.5 43.5q54 0 93.5 -22t58.5 -59v144q0 67 -39 108.5t-108 41.5q-66 0 -102.5 -40.5t-36.5 -110.5v-10h-20v12q0 77 42.5 123t116.5 46zM263 10 q71 0 111 37.5t40 95.5t-40 96t-111 38t-111 -38t-40 -96t40 -95.5t111 -37.5z" />
<glyph unicode="b" d="M287 531q75 0 119 -49.5t44 -129.5v-184q0 -80 -44 -129t-119 -49q-112 0 -151 85v-75h-20v710h20v-266q39 87 151 87zM430 170v180q0 75 -38.5 118t-108.5 43q-69 0 -108 -41.5t-39 -110.5v-198q0 -68 39 -109.5t108 -41.5q70 0 108.5 43t38.5 117z" />
<glyph unicode="c" d="M425 360v10q0 64 -38.5 102.5t-107.5 38.5q-70 0 -108 -43t-38 -117v-181q0 -73 38.5 -116.5t107.5 -43.5q70 0 109 38.5t39 102.5v12h20v-13q0 -71 -45 -115.5t-123 -44.5q-77 0 -121.5 49.5t-44.5 128.5v185q0 81 44.5 129.5t121.5 48.5t121.5 -44t44.5 -115v-12h-20z " />
<glyph unicode="d" d="M415 710h20v-710h-20v76q-39 -86 -151 -86q-75 0 -119 49t-44 129v184q0 80 44 129.5t119 49.5q112 0 151 -85v264zM268 10q69 0 108 41t39 110v198q0 69 -39 110.5t-108 41.5q-70 0 -108.5 -43t-38.5 -118v-180q0 -74 38.5 -117t108.5 -43z" />
<glyph unicode="e" d="M429 163h20v-12q0 -71 -46 -116t-125 -45q-80 0 -126 49.5t-46 128.5v185q0 81 46 129.5t125 48.5t124.5 -48.5t45.5 -130.5v-86h-321v-96q0 -73 40 -116.5t112 -43.5t111.5 39t39.5 103v11zM277 511q-72 0 -111.5 -43t-39.5 -117v-65h301v64q0 75 -39 118t-111 43z" />
<glyph unicode="f" d="M347 695q-38 0 -59.5 -21.5t-21.5 -61.5v-92h189v-20h-189v-500h-20v500h-148v20h148v94q0 45 27 73t72 28h110v-20h-108z" />
<glyph unicode="g" d="M414 521h20v-521q0 -75 -44 -121.5t-119 -46.5t-118.5 36t-43.5 97v11h20v-9q0 -54 37 -84.5t105 -30.5t105.5 41t37.5 109v100q-40 -84 -151 -84q-75 0 -119 46.5t-44 121.5v167q0 81 43.5 129.5t119.5 48.5q112 0 151 -85v75zM267 38q69 0 108 41t39 109v172 q0 68 -39 109.5t-108 41.5q-70 0 -108.5 -43t-38.5 -117v-163q0 -68 39 -109t108 -41z" />
<glyph unicode="h" d="M280 531q75 0 116.5 -46t41.5 -127v-358h-20v355q0 75 -36.5 115.5t-104.5 40.5q-67 0 -104 -41t-37 -115v-355h-20v710h20v-268q36 89 144 89z" />
<glyph unicode="i" d="M302 715v-60h-60v60h60zM291 20h151v-20h-329v20h158v480h-155v20h175v-500z" />
<glyph unicode="j" d="M428 715v-60h-60v60h60zM410 520v-505q0 -79 -44.5 -128.5t-121.5 -49.5q-78 0 -123 44.5t-45 115.5v13h20v-12q0 -64 39 -102.5t109 -38.5q69 0 107.5 43.5t38.5 116.5v483h-225v20h245z" />
<glyph unicode="k" d="M444 0l-204 287l-73 -80v-207h-20v710h20v-473l257 284h25l-194 -219l213 -302h-24z" />
<glyph unicode="l" d="M292 20h150v-20h-329v20h159v670h-156v20h176v-690z" />
<glyph unicode="m" d="M381 531q53 0 82.5 -33t29.5 -96v-402h-20v399q0 112 -94 112q-44 0 -68.5 -29.5t-24.5 -82.5v-399h-20v399q0 112 -92 112q-44 0 -69 -29.5t-25 -82.5v-399h-20v522h19v-51q27 60 98 60q78 0 101 -70q23 70 103 70z" />
<glyph unicode="n" d="M280 531q74 0 116 -45.5t42 -126.5v-359h-20v356q0 74 -36.5 114.5t-104.5 40.5q-67 0 -104 -41t-37 -114v-356h-20v521h20v-79q36 89 144 89z" />
<glyph unicode="o" d="M275 531q79 0 125 -49t46 -129v-185q0 -80 -46 -129t-125 -49t-125 49t-46 129v185q0 80 46 129t125 49zM426 351q0 74 -39.5 117t-111.5 43t-111.5 -43t-39.5 -117v-181q0 -74 39.5 -117t111.5 -43t111.5 43t39.5 117v181z" />
<glyph unicode="p" d="M287 531q75 0 119 -49t44 -129v-185q0 -80 -44 -129t-119 -49q-112 0 -151 85v-228h-20v674h20v-77q39 87 151 87zM430 170v181q0 74 -38.5 117t-108.5 43q-69 0 -108 -41.5t-39 -109.5v-199q0 -68 39 -109.5t108 -41.5q70 0 108.5 43t38.5 117z" />
<glyph unicode="q" d="M415 521h20v-674h-20v230q-39 -87 -151 -87q-75 0 -119 49t-44 129v185q0 80 44 129t119 49q112 0 151 -85v75zM268 10q69 0 108 41.5t39 109.5v199q0 68 -39 109.5t-108 41.5q-70 0 -108.5 -43t-38.5 -117v-181q0 -74 38.5 -117t108.5 -43z" />
<glyph unicode="r" d="M301 531q74 0 116 -45t42 -125v-1h-20v1q0 72 -36.5 111t-104.5 39q-67 0 -104 -41t-37 -114v-356h-20v521h20v-79q36 89 144 89z" />
<glyph unicode="s" d="M412 359v10q0 68 -36.5 105t-104.5 37q-61 0 -96 -33t-35 -79q0 -49 28 -75t77 -41l56 -17q72 -22 105.5 -51t33.5 -86q0 -58 -46 -98.5t-119 -40.5t-120 45t-47 109v19h20v-15q0 -64 42.5 -101t104.5 -37q61 0 103 33.5t42 83.5q0 51 -29.5 76t-96.5 45l-54 16 q-119 36 -120 133q-1 56 41 95t110 39q76 0 118.5 -42.5t42.5 -120.5v-9h-20z" />
<glyph unicode="t" d="M440 500h-189v-397q0 -40 21.5 -61.5t59.5 -21.5h108v-20h-110q-45 0 -72 28t-27 73v399h-148v20h148v190h20v-190h189v-20z" />
<glyph unicode="u" d="M414 521h20v-521h-20v80q-36 -90 -145 -90q-74 0 -116 45.5t-42 125.5v360h20v-357q0 -74 36.5 -114t104.5 -40q67 0 104.5 40.5t37.5 113.5v357z" />
<glyph unicode="v" d="M445 521h21l-182 -521h-18l-181 521h21l169 -486z" />
<glyph unicode="w" d="M502 520h20l-109 -520h-19l-119 423l-119 -423h-19l-109 520h20l100 -474l118 418h18l118 -418z" />
<glyph unicode="x" d="M459 0h-23l-160 245l-160 -245h-24l172 263l-168 258h24l156 -241l155 241h24l-168 -258z" />
<glyph unicode="y" d="M448 521h22l-313 -674h-21l141 303l-179 371h22l167 -347z" />
<glyph unicode="z" d="M146 19h281v-19h-306v16l282 486h-276v19h300v-16z" />
<glyph unicode="{" d="M280 437q0 -69 -53 -92q53 -22 53 -91v-246q0 -35 18.5 -54t52.5 -19h63v-20h-65q-41 0 -65 25t-24 66v246q0 40 -20.5 61.5t-56.5 21.5h-41v20h41q36 0 56.5 22t20.5 62v246q0 41 24 66t65 25h65v-20h-63q-34 0 -52.5 -19t-18.5 -54v-246z" />
<glyph unicode="|" d="M265 776h20v-861h-20v861z" />
<glyph unicode="}" d="M370 356h41v-20h-41q-36 0 -56.5 -22t-20.5 -62v-246q0 -41 -24 -66t-65 -25h-65v20h63q34 0 52.5 19t18.5 54v246q0 69 53 92q-53 22 -53 91v246q0 35 -18.5 54t-52.5 19h-63v20h65q41 0 65 -25t24 -66v-246q0 -40 20.5 -61.5t56.5 -21.5z" />
<glyph unicode="~" d="M410 369h20v-2q0 -40 -19.5 -66.5t-49.5 -26.5q-5 0 -10.5 1t-10.5 2.5t-11.5 4.5t-10.5 5t-12 6.5t-11.5 6.5t-12 7.5t-11.5 7.5q-59 37 -80 37t-35 -21t-14 -54h-20v2q0 40 19.5 66.5t49.5 26.5t91 -41q55 -37 79 -37q21 0 35 21t14 54z" />
<glyph unicode="&#xa0;" />
<glyph unicode="&#xa1;" d="M305 460h-60v60h60v-60zM265 -191v512h20v-512h-20z" />
<glyph unicode="&#xa2;" d="M434 287h20v-12q0 -69 -44 -113t-120 -47v-115h-20v115q-76 3 -120 49.5t-44 118.5v135q0 79 43.5 127t120.5 51v115h20v-115q75 -4 118.5 -49t43.5 -115v-14h-20v12q0 63 -37 102.5t-105 43.5v-441q69 3 106.5 41.5t37.5 99.5v11zM126 285q0 -66 37.5 -106.5 t106.5 -43.5v441q-69 -3 -106.5 -45.5t-37.5 -114.5v-131z" />
<glyph unicode="&#xa3;" d="M179 20h279v-20h-368v20h69v290h-69v20h69v235q0 71 38.5 113.5t102.5 42.5t103 -43t39 -113v-58h-21v58q0 62 -33 99t-88 37t-88 -37t-33 -99v-235h162v-20h-162v-290z" />
<glyph unicode="&#xa4;" d="M421 321q0 -56 -37 -96l78 -78l-14 -14l-78 78q-39 -36 -95 -36t-95 36l-78 -78l-14 14l77 78q-36 43 -36 96t36 96l-77 77l14 14l77 -77q43 36 96 36t96 -36l77 77l14 -14l-77 -77q36 -43 36 -96zM149 321q0 -53 36.5 -89.5t89.5 -36.5t89.5 36.5t36.5 89.5q0 52 -37 89 t-89 37t-89 -37t-37 -89z" />
<glyph unicode="&#xa5;" d="M285 411v-76h130v-20h-130v-120h130v-20h-130v-175h-20v175h-130v20h130v120h-130v20h130v78l-199 298h24l186 -279l185 279h24z" />
<glyph unicode="&#xa6;" d="M285 776v-337h-20v337h20zM265 -85v337h20v-337h-20z" />
<glyph unicode="&#xa7;" d="M379 177q63 -40 63 -122q0 -64 -49 -107t-121 -43q-73 0 -122.5 46.5t-49.5 117.5v20h20v-20q0 -62 43.5 -103t108.5 -41t107.5 37t42.5 93q0 58 -35.5 91t-121.5 54q-85 21 -123 55.5t-38 92.5q0 84 81 124q-66 37 -66 111q0 60 43.5 99t110.5 39q77 0 120.5 -45 t43.5 -126v-8h-20v8q0 73 -37.5 112t-106.5 39q-58 0 -96 -33t-38 -85q0 -50 32 -78t110 -48q91 -24 129.5 -59t38.5 -99q0 -78 -70 -122zM124 348q0 -51 34.5 -80.5t115.5 -49.5q50 -12 85 -30q32 17 51 46t19 64q0 56 -35.5 87t-121.5 54q-30 7 -65 22q-83 -33 -83 -113z " />
<glyph unicode="&#xa8;" d="M142 716v-60h-60v60h60zM332 716v-60h-60v60h60z" />
<glyph unicode="&#xa9;" d="M275 68q-98 0 -158.5 57t-60.5 149v162q0 92 60.5 149t158.5 57t158.5 -57t60.5 -149v-162q0 -92 -60.5 -149t-158.5 -57zM275 88q89 0 144 51.5t55 134.5v162q0 83 -55 134.5t-144 51.5t-144 -51.5t-55 -134.5v-162q0 -83 55 -134.5t144 -51.5zM280 192q-44 0 -70.5 28 t-26.5 74v125q0 47 26 75t70 28t70.5 -26.5t26.5 -70.5v-2h-20v2q0 35 -21 56.5t-56 21.5q-36 0 -56 -23t-20 -62v-123q0 -38 20.5 -61t56.5 -23q35 0 56 22.5t21 59.5v6h20v-6q0 -45 -26.5 -73t-70.5 -28z" />
<glyph unicode="&#xaa;" d="M270 724q40 0 63.5 -23t23.5 -61v-173h-18v30q-22 -35 -74 -35q-41 0 -64 21t-23 54t23.5 54t65.5 21q47 0 70 -30v57q0 30 -17.5 48t-49.5 18q-30 0 -47 -17t-17 -47v-5h-20v6q0 37 22.5 59.5t61.5 22.5zM268 480q33 0 51.5 16t18.5 41t-18.5 41.5t-51.5 16.5 t-51.5 -16.5t-18.5 -41.5t18.5 -41t51.5 -16z" />
<glyph unicode="&#xab;" d="M284 320l172 -195l-15 -14l-184 209l184 209l15 -14zM114 319l172 -195l-15 -14l-184 209l184 209l15 -14z" />
<glyph unicode="&#xac;" d="M428 331v-145h-20v125h-275v20h295z" />
<glyph unicode="&#xad;" d="M141 331h267v-20h-267v20z" />
<glyph unicode="&#xae;" d="M275 721q68 0 113.5 -46t45.5 -116q0 -69 -45.5 -115.5t-113.5 -46.5t-113 46.5t-45 115.5q0 70 45 116t113 46zM275 416q60 0 99.5 40.5t39.5 102.5t-39.5 103t-99.5 41t-99.5 -41t-39.5 -103t39.5 -102.5t99.5 -40.5zM334 606q0 -21 -14 -36t-39 -16l68 -91h-23l-66 91 h-16v-91h-20v195h54q27 0 41.5 -15t14.5 -37zM244 639v-67h34q16 0 26 9.5t10 24.5t-10 24t-26 9h-34z" />
<glyph unicode="&#xaf;" d="M292 658v-20h-230v20h230z" />
<glyph unicode="&#xb0;" d="M275 469q-54 0 -90 36t-36 90t36 90t90 36q53 0 89 -36t36 -90t-36 -90t-89 -36zM275 489q45 0 75 30t30 76t-30 76t-75 30q-46 0 -76 -30t-30 -76t30 -76t76 -30z" />
<glyph unicode="&#xb1;" d="M284 365h138v-20h-138v-124h-20v124h-137v20h137v142h20v-142zM127 134v20h295v-20h-295z" />
<glyph unicode="&#xb4;" d="M143 729l-74 -132h-23l74 132h23z" />
<glyph unicode="&#xb6;" d="M399 711v-874h-20v854h-80v-854h-20v519h-70q-54 0 -86 29.5t-32 79.5v138q0 49 32 78.5t86 29.5h190z" />
<glyph unicode="&#xb7;" d="M305 358v-60h-60v60h60z" />
<glyph unicode="&#xb8;" d="M202 -152h-21l41 157h21z" />
<glyph unicode="&#xba;" d="M275 725q41 0 65 -24t24 -64v-88q0 -39 -24 -63t-65 -24q-42 0 -66 24t-24 63v88q0 40 24 64t66 24zM344 636q0 32 -18 50.5t-51 18.5t-51.5 -18.5t-18.5 -50.5v-86q0 -31 18.5 -50t51.5 -19t51 19t18 50v86z" />
<glyph unicode="&#xbb;" d="M266 321l-172 195l15 14l184 -209l-184 -209l-15 14zM436 321l-172 195l15 14l184 -209l-184 -209l-15 14z" />
<glyph unicode="&#xbc;" d="M268 460v281h-62v20h82v-301h54v-20h-131v20h57zM76 367h398v-20h-398v20zM327 134v-85h46v-20h-46v-79h-20v79h-132v16l112 225h23l-110 -221h107v85h20z" />
<glyph unicode="&#xbd;" d="M269 460v281h-62v20h82v-301h54v-20h-131v20h57zM76 367h398v-20h-398v20zM339 133l-116 -163h139v-20h-166v17l126 176q15 21 15 48q0 29 -18 47t-46 18q-29 0 -47 -18t-18 -47v-11h-20v11q0 37 24 61t61 24t60.5 -24t23.5 -61q0 -33 -18 -58z" />
<glyph unicode="&#xbe;" d="M274 435q-39 0 -63 24t-24 62v6h20v-6q0 -30 18.5 -48t48.5 -18q31 0 49.5 18t18.5 48v17q0 31 -19 49.5t-50 18.5h-36v15l93 118h-134v20h161v-17l-92 -116h9q40 0 64 -24.5t24 -63.5v-17q0 -38 -24 -62t-64 -24zM76 367h398v-20h-398v20zM327 134v-85h46v-20h-46v-79 h-20v79h-132v16l112 225h23l-110 -221h107v85h20z" />
<glyph unicode="&#xbf;" d="M316 520v-60h-60v60h60zM411 -23h20v-24q0 -69 -42 -111.5t-114 -42.5t-114 45.5t-42 122.5v74q0 70 42.5 114.5t114.5 44.5v121h20v-141h-20q-65 0 -101 -38.5t-36 -102.5v-70q0 -70 35.5 -110t100.5 -40t100.5 37.5t35.5 98.5v22z" />
<glyph unicode="&#xc0;" d="M287 787h-23l-75 132h23zM465 0l-63 221h-255l-62 -221h-21l201 711h18l203 -711h-21zM153 241h244l-123 433z" />
<glyph unicode="&#xc1;" d="M349 919l-74 -132h-23l74 132h23zM465 0l-63 221h-255l-62 -221h-21l201 711h18l203 -711h-21zM153 241h244l-123 433z" />
<glyph unicode="&#xc2;" d="M274 890l-101 -104h-28l120 124h18l120 -124h-28zM465 0l-63 221h-255l-62 -221h-21l201 711h18l203 -711h-21zM153 241h244l-123 433z" />
<glyph unicode="&#xc3;" d="M202 873q-17 0 -28 -17t-11 -44h-20q0 35 16.5 58t42.5 23q24 0 76 -36q48 -32 66 -32q17 0 28 17t11 44h20q0 -35 -17 -58t-42 -23q-23 0 -77 36q-49 32 -65 32zM465 0l-63 221h-255l-62 -221h-21l201 711h18l203 -711h-21zM153 241h244l-123 433z" />
<glyph unicode="&#xc4;" d="M209 905v-60h-60v60h60zM399 905v-60h-60v60h60zM465 0l-63 221h-255l-62 -221h-21l201 711h18l203 -711h-21zM153 241h244l-123 433z" />
<glyph unicode="&#xc5;" d="M274 777q-42 0 -67.5 23.5t-25.5 61.5q0 37 26 60.5t67 23.5t67 -23.5t26 -60.5q0 -38 -25.5 -61.5t-67.5 -23.5zM274 926q-32 0 -52.5 -18t-20.5 -46q0 -30 19.5 -47.5t53.5 -17.5t53.5 17.5t19.5 47.5q0 29 -20 46.5t-53 17.5zM465 0l-63 221h-255l-62 -221h-21 l201 711h18l203 -711h-21zM153 241h244l-123 433z" />
<glyph unicode="&#xc6;" d="M509 690h-207v-316h192v-20h-192v-334h207v-20h-227v221h-161l-80 -221h-21l257 710h232v-20zM128 241h154v427z" />
<glyph unicode="&#xc7;" d="M448 224h20v-36q0 -87 -50 -141.5t-134 -55.5l-37 -143h-21l38 143q-79 5 -126 59.5t-47 141.5v327q0 92 50.5 146.5t137.5 54.5q86 0 137 -51.5t51 -137.5v-25h-21v24q0 78 -45 124t-122 46q-79 0 -123.5 -49t-44.5 -134v-323q0 -84 45.5 -133.5t122.5 -49.5t123 48.5 t46 129.5v35z" />
<glyph unicode="&#xc8;" d="M200 919h23l75 -132h-23zM461 691h-324v-317h307v-20h-307v-334h324v-20h-344v711h344v-20z" />
<glyph unicode="&#xc9;" d="M360 919l-74 -132h-23l74 132h23zM461 691h-324v-317h307v-20h-307v-334h324v-20h-344v711h344v-20z" />
<glyph unicode="&#xca;" d="M285 890l-101 -104h-28l120 124h18l120 -124h-28zM461 691h-324v-317h307v-20h-307v-334h324v-20h-344v711h344v-20z" />
<glyph unicode="&#xcb;" d="M220 905v-60h-60v60h60zM410 905v-60h-60v60h60zM461 691h-324v-317h307v-20h-307v-334h324v-20h-344v711h344v-20z" />
<glyph unicode="&#xcc;" d="M288 787h-23l-75 132h23zM442 690h-157v-670h157v-20h-334v20h157v670h-157v20h334v-20z" />
<glyph unicode="&#xcd;" d="M350 919l-74 -132h-23l74 132h23zM442 690h-157v-670h157v-20h-334v20h157v670h-157v20h334v-20z" />
<glyph unicode="&#xce;" d="M275 890l-101 -104h-28l120 124h18l120 -124h-28zM442 690h-157v-670h157v-20h-334v20h157v670h-157v20h334v-20z" />
<glyph unicode="&#xcf;" d="M210 905v-60h-60v60h60zM400 905v-60h-60v60h60zM442 690h-157v-670h157v-20h-334v20h157v670h-157v20h334v-20z" />
<glyph unicode="&#xd0;" d="M257 711q97 0 154 -53.5t57 -142.5v-319q0 -89 -57 -142.5t-154 -53.5h-157v711h157zM448 197v317q0 81 -51.5 129t-139.5 48h-137v-317h166v-20h-166v-334h137q88 0 139.5 48t51.5 129z" />
<glyph unicode="&#xd1;" d="M204 873q-17 0 -28 -17t-11 -44h-20q0 35 16.5 58t42.5 23q24 0 76 -36q48 -32 66 -32q17 0 28 17t11 44h20q0 -35 -17 -58t-42 -23q-23 0 -77 36q-49 32 -65 32zM436 711h21v-711h-18l-325 663v-663h-20v711h18l324 -661v661z" />
<glyph unicode="&#xd2;" d="M190 919h23l75 -132h-23zM275 720q88 0 141 -55.5t53 -146.5v-327q0 -91 -53 -146t-141 -55t-141 55t-53 146v327q0 91 53 146.5t141 55.5zM275 700q-79 0 -126.5 -50t-47.5 -134v-323q0 -84 47 -133.5t127 -49.5t127 49.5t47 133.5v323q0 84 -47.5 134t-126.5 50z" />
<glyph unicode="&#xd3;" d="M350 919l-74 -132h-23l74 132h23zM275 720q88 0 141 -55.5t53 -146.5v-327q0 -91 -53 -146t-141 -55t-141 55t-53 146v327q0 91 53 146.5t141 55.5zM275 700q-79 0 -126.5 -50t-47.5 -134v-323q0 -84 47 -133.5t127 -49.5t127 49.5t47 133.5v323q0 84 -47.5 134 t-126.5 50z" />
<glyph unicode="&#xd4;" d="M275 890l-101 -104h-28l120 124h18l120 -124h-28zM275 720q88 0 141 -55.5t53 -146.5v-327q0 -91 -53 -146t-141 -55t-141 55t-53 146v327q0 91 53 146.5t141 55.5zM449 193v323q0 84 -47.5 134t-126.5 50t-126.5 -50t-47.5 -134v-323q0 -84 47 -133.5t127 -49.5 t127 49.5t47 133.5z" />
<glyph unicode="&#xd5;" d="M404 886q0 -35 -17 -58t-42 -23q-23 0 -77 36q-49 32 -65 32q-17 0 -28 -17t-11 -44h-20q0 35 16.5 58t42.5 23q24 0 76 -36q48 -32 66 -32q17 0 28 17t11 44h20zM275 720q88 0 141 -55.5t53 -146.5v-327q0 -91 -53 -146t-141 -55t-141 55t-53 146v327q0 91 53 146.5 t141 55.5zM275 700q-79 0 -126.5 -50t-47.5 -134v-323q0 -84 47 -133.5t127 -49.5t127 49.5t47 133.5v323q0 84 -47.5 134t-126.5 50z" />
<glyph unicode="&#xd6;" d="M210 905v-60h-60v60h60zM400 905v-60h-60v60h60zM275 720q88 0 141 -55.5t53 -146.5v-327q0 -91 -53 -146t-141 -55t-141 55t-53 146v327q0 91 53 146.5t141 55.5zM275 700q-79 0 -126.5 -50t-47.5 -134v-323q0 -84 47 -133.5t127 -49.5t127 49.5t47 133.5v323 q0 84 -47.5 134t-126.5 50z" />
<glyph unicode="&#xd7;" d="M409 441l-120 -120l120 -121l-14 -14l-120 120l-120 -120l-14 14l120 121l-120 120l14 14l120 -120l120 120z" />
<glyph unicode="&#xd8;" d="M275 720q88 0 141 -55.5t53 -146.5v-327q0 -91 -53 -146t-141 -55t-141 55t-53 146v327q0 91 53 146.5t141 55.5zM101 516v-323q0 -45 14 -81l309 508q-45 80 -149 80q-79 0 -126.5 -50t-47.5 -134zM449 193v323q0 47 -15 83l-308 -509q44 -80 149 -80q80 0 127 49.5 t47 133.5z" />
<glyph unicode="&#xd9;" d="M190 919h23l75 -132h-23zM439 710h20v-528q0 -87 -50 -139t-135 -52q-83 0 -133 52.5t-50 138.5v528h20v-528q0 -78 44.5 -124.5t118.5 -46.5q75 0 120 46.5t45 124.5v528z" />
<glyph unicode="&#xda;" d="M350 919l-74 -132h-23l74 132h23zM439 710h20v-528q0 -87 -50 -139t-135 -52q-83 0 -133 52.5t-50 138.5v528h20v-528q0 -78 44.5 -124.5t118.5 -46.5q75 0 120 46.5t45 124.5v528z" />
<glyph unicode="&#xdb;" d="M275 890l-101 -104h-28l120 124h18l120 -124h-28zM439 710h20v-528q0 -87 -50 -139t-135 -52q-83 0 -133 52.5t-50 138.5v528h20v-528q0 -78 44.5 -124.5t118.5 -46.5q75 0 120 46.5t45 124.5v528z" />
<glyph unicode="&#xdc;" d="M210 905v-60h-60v60h60zM400 905v-60h-60v60h60zM439 710h20v-528q0 -87 -50 -139t-135 -52q-83 0 -133 52.5t-50 138.5v528h20v-528q0 -78 44.5 -124.5t118.5 -46.5q75 0 120 46.5t45 124.5v528z" />
<glyph unicode="&#xdd;" d="M348 919l-74 -132h-23l74 132h23zM285 383v-363h165v-20h-350v20h165v361l-220 330h25l205 -309l204 309h25z" />
<glyph unicode="&#xde;" d="M300 560q87 0 140.5 -54t53.5 -142q0 -89 -53.5 -143.5t-140.5 -54.5h-151v-166h-20v711h20v-151h151zM300 184q78 0 126 50t48 130t-47.5 128t-126.5 48h-151v-356h151z" />
<glyph unicode="&#xdf;" d="M335 396q59 -15 91.5 -60t32.5 -111v-47q0 -80 -48.5 -129t-132.5 -49h-35v20h35q76 0 118.5 43t42.5 117v43q0 74 -42.5 117.5t-118.5 43.5h-19v20h19q55 0 85.5 36.5t30.5 99.5v24q0 63 -34.5 99.5t-96.5 36.5t-96 -36.5t-34 -99.5v-564h-20v566q0 70 40 112t110 42 t110.5 -42t40.5 -112v-28q0 -107 -79 -142z" />
<glyph unicode="&#xe0;" d="M288 598h-23l-75 132h23zM267 530q77 0 122 -46.5t45 -121.5v-362h-20v73q-42 -83 -152 -83q-79 0 -124.5 43.5t-45.5 109.5q0 67 45.5 110.5t124.5 43.5q54 0 93.5 -22t58.5 -59v144q0 67 -39 108.5t-108 41.5q-66 0 -102.5 -40.5t-36.5 -110.5v-10h-20v12 q0 77 42.5 123t116.5 46zM263 10q71 0 111 37.5t40 95.5t-40 96t-111 38t-111 -38t-40 -96t40 -95.5t111 -37.5z" />
<glyph unicode="&#xe1;" d="M350 730l-74 -132h-23l74 132h23zM267 530q77 0 122 -46.5t45 -121.5v-362h-20v73q-42 -83 -152 -83q-79 0 -124.5 43.5t-45.5 109.5q0 67 45.5 110.5t124.5 43.5q54 0 93.5 -22t58.5 -59v144q0 67 -39 108.5t-108 41.5q-66 0 -102.5 -40.5t-36.5 -110.5v-10h-20v12 q0 77 42.5 123t116.5 46zM263 10q71 0 111 37.5t40 95.5t-40 96t-111 38t-111 -38t-40 -96t40 -95.5t111 -37.5z" />
<glyph unicode="&#xe2;" d="M275 701l-101 -104h-28l120 124h18l120 -124h-28zM267 530q77 0 122 -46.5t45 -121.5v-362h-20v73q-42 -83 -152 -83q-79 0 -124.5 43.5t-45.5 109.5q0 67 45.5 110.5t124.5 43.5q54 0 93.5 -22t58.5 -59v144q0 67 -39 108.5t-108 41.5q-66 0 -102.5 -40.5t-36.5 -110.5 v-10h-20v12q0 77 42.5 123t116.5 46zM263 10q71 0 111 37.5t40 95.5t-40 96t-111 38t-111 -38t-40 -96t40 -95.5t111 -37.5z" />
<glyph unicode="&#xe3;" d="M203 684q-17 0 -28 -17t-11 -44h-20q0 35 16.5 58t42.5 23q24 0 76 -36q48 -32 66 -32q17 0 28 17t11 44h20q0 -35 -17 -58t-42 -23q-23 0 -77 36q-49 32 -65 32zM267 530q77 0 122 -46.5t45 -121.5v-362h-20v73q-42 -83 -152 -83q-79 0 -124.5 43.5t-45.5 109.5 q0 67 45.5 110.5t124.5 43.5q54 0 93.5 -22t58.5 -59v144q0 67 -39 108.5t-108 41.5q-66 0 -102.5 -40.5t-36.5 -110.5v-10h-20v12q0 77 42.5 123t116.5 46zM263 10q71 0 111 37.5t40 95.5t-40 96t-111 38t-111 -38t-40 -96t40 -95.5t111 -37.5z" />
<glyph unicode="&#xe4;" d="M210 716v-60h-60v60h60zM400 716v-60h-60v60h60zM267 530q77 0 122 -46.5t45 -121.5v-362h-20v73q-42 -83 -152 -83q-79 0 -124.5 43.5t-45.5 109.5q0 67 45.5 110.5t124.5 43.5q54 0 93.5 -22t58.5 -59v144q0 67 -39 108.5t-108 41.5q-66 0 -102.5 -40.5t-36.5 -110.5 v-10h-20v12q0 77 42.5 123t116.5 46zM263 10q71 0 111 37.5t40 95.5t-40 96t-111 38t-111 -38t-40 -96t40 -95.5t111 -37.5z" />
<glyph unicode="&#xe5;" d="M275 588q-42 0 -67.5 23.5t-25.5 61.5q0 37 26 60.5t67 23.5t67 -23.5t26 -60.5q0 -38 -25.5 -61.5t-67.5 -23.5zM275 737q-32 0 -52.5 -18t-20.5 -46q0 -30 19.5 -47.5t53.5 -17.5t53.5 17.5t19.5 47.5q0 29 -20 46.5t-53 17.5zM267 530q77 0 122 -46.5t45 -121.5v-362 h-20v73q-42 -83 -152 -83q-79 0 -124.5 43.5t-45.5 109.5q0 67 45.5 110.5t124.5 43.5q54 0 93.5 -22t58.5 -59v144q0 67 -39 108.5t-108 41.5q-66 0 -102.5 -40.5t-36.5 -110.5v-10h-20v12q0 77 42.5 123t116.5 46zM263 10q71 0 111 37.5t40 95.5t-40 96t-111 38t-111 -38 t-40 -96t40 -95.5t111 -37.5z" />
<glyph unicode="&#xe6;" d="M483 163h20v-50q0 -54 -32 -87t-87 -33q-87 0 -112 78q-29 -81 -115 -81q-60 0 -93.5 41t-33.5 112t33.5 112.5t92.5 41.5q74 0 107 -67v182q0 44 -26.5 71t-74.5 27q-46 0 -71.5 -29.5t-25.5 -79.5v-52h-20v54q0 58 31.5 92.5t85.5 34.5q40 0 69.5 -18.5t42.5 -49.5 q26 68 109 68q55 0 87 -35t32 -91v-139h-219v-145q0 -49 26.5 -78t74.5 -29q47 0 73 27.5t26 72.5v50zM383 510q-47 0 -73.5 -27.5t-26.5 -75.5v-122h199v118q0 48 -26 77.5t-73 29.5zM157 10q49 0 76.5 31.5t30.5 89.5l-1 30q-4 55 -31.5 85.5t-74.5 30.5q-51 0 -79 -35.5 t-28 -98.5t28 -98t79 -35z" />
<glyph unicode="&#xe7;" d="M427 163h20v-13q0 -67 -40 -110.5t-110 -48.5l-37 -143h-21l37 142q-75 1 -119 50t-44 128v185q0 81 44.5 129.5t121.5 48.5t121.5 -44t44.5 -115v-12h-20v10q0 64 -38.5 102.5t-107.5 38.5q-70 0 -108 -43t-38 -117v-181q0 -73 38.5 -116.5t107.5 -43.5q70 0 109 38.5 t39 102.5v12z" />
<glyph unicode="&#xe8;" d="M290 598h-23l-75 132h23zM429 163h20v-12q0 -71 -46 -116t-125 -45q-80 0 -126 49.5t-46 128.5v185q0 81 46 129.5t125 48.5t124.5 -48.5t45.5 -130.5v-86h-321v-96q0 -73 40 -116.5t112 -43.5t111.5 39t39.5 103v11zM277 511q-72 0 -111.5 -43t-39.5 -117v-65h301v64 q0 75 -39 118t-111 43z" />
<glyph unicode="&#xe9;" d="M352 730l-74 -132h-23l74 132h23zM429 163h20v-12q0 -71 -46 -116t-125 -45q-80 0 -126 49.5t-46 128.5v185q0 81 46 129.5t125 48.5t124.5 -48.5t45.5 -130.5v-86h-321v-96q0 -73 40 -116.5t112 -43.5t111.5 39t39.5 103v11zM277 511q-72 0 -111.5 -43t-39.5 -117v-65 h301v64q0 75 -39 118t-111 43z" />
<glyph unicode="&#xea;" d="M277 701l-101 -104h-28l120 124h18l120 -124h-28zM429 163h20v-12q0 -71 -46 -116t-125 -45q-80 0 -126 49.5t-46 128.5v185q0 81 46 129.5t125 48.5t124.5 -48.5t45.5 -130.5v-86h-321v-96q0 -73 40 -116.5t112 -43.5t111.5 39t39.5 103v11zM277 511q-72 0 -111.5 -43 t-39.5 -117v-65h301v64q0 75 -39 118t-111 43z" />
<glyph unicode="&#xeb;" d="M212 716v-60h-60v60h60zM402 716v-60h-60v60h60zM429 163h20v-12q0 -71 -46 -116t-125 -45q-80 0 -126 49.5t-46 128.5v185q0 81 46 129.5t125 48.5t124.5 -48.5t45.5 -130.5v-86h-321v-96q0 -73 40 -116.5t112 -43.5t111.5 39t39.5 103v11zM277 511q-72 0 -111.5 -43 t-39.5 -117v-65h301v64q0 75 -39 118t-111 43z" />
<glyph unicode="&#xec;" d="M285 597h-23l-75 132h23zM291 20h151v-20h-329v20h158v480h-155v20h175v-500z" />
<glyph unicode="&#xed;" d="M347 729l-74 -132h-23l74 132h23zM291 20h151v-20h-329v20h158v480h-155v20h175v-500z" />
<glyph unicode="&#xee;" d="M272 700l-101 -104h-28l120 124h18l120 -124h-28zM291 20h151v-20h-329v20h158v480h-155v20h175v-500z" />
<glyph unicode="&#xef;" d="M207 715v-60h-60v60h60zM397 715v-60h-60v60h60zM291 20h151v-20h-329v20h158v480h-155v20h175v-500z" />
<glyph unicode="&#xf0;" d="M387 493q58 -51 58 -141v-184q0 -80 -46 -129t-125 -49t-125 49t-46 129v184q0 80 46 129t125 49q22 0 47 -5l-209 185h30l72 -64h165v-20h-142zM425 170v180q0 74 -39.5 117t-111.5 43t-111.5 -43t-39.5 -117v-180q0 -74 39.5 -117t111.5 -43t111.5 43t39.5 117z" />
<glyph unicode="&#xf1;" d="M201 684q-17 0 -28 -17t-11 -44h-20q0 35 16.5 58t42.5 23q24 0 76 -36q48 -32 66 -32q17 0 28 17t11 44h20q0 -35 -17 -58t-42 -23q-23 0 -77 36q-49 32 -65 32zM280 531q74 0 116 -45.5t42 -126.5v-359h-20v356q0 74 -36.5 114.5t-104.5 40.5q-67 0 -104 -41t-37 -114 v-356h-20v521h20v-79q36 89 144 89z" />
<glyph unicode="&#xf2;" d="M200 730h23l74 -132h-23zM275 531q79 0 125 -49t46 -129v-185q0 -80 -46 -129t-125 -49t-125 49t-46 129v185q0 80 46 129t125 49zM426 351q0 74 -39.5 117t-111.5 43t-111.5 -43t-39.5 -117v-181q0 -74 39.5 -117t111.5 -43t111.5 43t39.5 117v181z" />
<glyph unicode="&#xf3;" d="M350 730l-74 -132h-23l74 132h23zM275 531q79 0 125 -49t46 -129v-185q0 -80 -46 -129t-125 -49t-125 49t-46 129v185q0 80 46 129t125 49zM426 351q0 74 -39.5 117t-111.5 43t-111.5 -43t-39.5 -117v-181q0 -74 39.5 -117t111.5 -43t111.5 43t39.5 117v181z" />
<glyph unicode="&#xf4;" d="M275 701l-101 -104h-28l120 124h18l120 -124h-28zM275 531q79 0 125 -49t46 -129v-185q0 -80 -46 -129t-125 -49t-125 49t-46 129v185q0 80 46 129t125 49zM426 170v181q0 74 -39.5 117t-111.5 43t-111.5 -43t-39.5 -117v-181q0 -74 39.5 -117t111.5 -43t111.5 43 t39.5 117z" />
<glyph unicode="&#xf5;" d="M404 697q0 -35 -17 -58t-42 -23q-23 0 -77 36q-49 32 -65 32q-17 0 -28 -17t-11 -44h-20q0 35 16.5 58t42.5 23q24 0 76 -36q48 -32 66 -32q17 0 28 17t11 44h20zM275 531q79 0 125 -49t46 -129v-185q0 -80 -46 -129t-125 -49t-125 49t-46 129v185q0 80 46 129t125 49z M426 351q0 74 -39.5 117t-111.5 43t-111.5 -43t-39.5 -117v-181q0 -74 39.5 -117t111.5 -43t111.5 43t39.5 117v181z" />
<glyph unicode="&#xf6;" d="M210 716v-60h-60v60h60zM400 716v-60h-60v60h60zM275 531q79 0 125 -49t46 -129v-185q0 -80 -46 -129t-125 -49t-125 49t-46 129v185q0 80 46 129t125 49zM426 351q0 74 -39.5 117t-111.5 43t-111.5 -43t-39.5 -117v-181q0 -74 39.5 -117t111.5 -43t111.5 43t39.5 117 v181z" />
<glyph unicode="&#xf7;" d="M296 477v-44h-44v44h44zM127 331h295v-20h-295v20zM296 215v-44h-44v44h44z" />
<glyph unicode="&#xf8;" d="M275 531q79 0 125 -49t46 -129v-185q0 -80 -46 -129t-125 -49t-125 49t-46 129v185q0 80 46 129t125 49zM124 351v-181q0 -57 25 -99l239 395q-39 45 -113 45q-72 0 -111.5 -43t-39.5 -117zM426 170v181q0 57 -25 98l-239 -394q40 -45 113 -45q72 0 111.5 43t39.5 117z " />
<glyph unicode="&#xf9;" d="M285 598h-23l-75 132h23zM414 521h20v-521h-20v80q-36 -90 -145 -90q-74 0 -116 45.5t-42 125.5v360h20v-357q0 -74 36.5 -114t104.5 -40q67 0 104.5 40.5t37.5 113.5v357z" />
<glyph unicode="&#xfa;" d="M347 730l-74 -132h-23l74 132h23zM414 521h20v-521h-20v80q-36 -90 -145 -90q-74 0 -116 45.5t-42 125.5v360h20v-357q0 -74 36.5 -114t104.5 -40q67 0 104.5 40.5t37.5 113.5v357z" />
<glyph unicode="&#xfb;" d="M272 701l-101 -104h-28l120 124h18l120 -124h-28zM414 521h20v-521h-20v80q-36 -90 -145 -90q-74 0 -116 45.5t-42 125.5v360h20v-357q0 -74 36.5 -114t104.5 -40q67 0 104.5 40.5t37.5 113.5v357z" />
<glyph unicode="&#xfc;" d="M207 716v-60h-60v60h60zM397 716v-60h-60v60h60zM414 521h20v-521h-20v80q-36 -90 -145 -90q-74 0 -116 45.5t-42 125.5v360h20v-357q0 -74 36.5 -114t104.5 -40q67 0 104.5 40.5t37.5 113.5v357z" />
<glyph unicode="&#xfd;" d="M359 730l-74 -132h-23l74 132h23zM448 521h22l-313 -674h-21l141 303l-179 371h22l167 -347z" />
<glyph unicode="&#xfe;" d="M286 530q75 0 119 -49t44 -129v-184q0 -80 -44 -129t-119 -49q-112 0 -151 85v-228h-20v863h20v-266q39 86 151 86zM429 170v180q0 74 -38.5 117t-108.5 43q-69 0 -108 -41t-39 -110v-198q0 -68 39 -109.5t108 -41.5q70 0 108.5 43t38.5 117z" />
<glyph unicode="&#xff;" d="M219 716v-60h-60v60h60zM409 716v-60h-60v60h60zM448 521h22l-313 -674h-21l141 303l-179 371h22l167 -347z" />
<glyph unicode="&#x152;" d="M523 690h-207v-316h192v-20h-192v-334h207v-20h-296q-83 0 -132 45t-49 121v378q0 76 49 121t132 45h296v-20zM227 20h69v670h-69q-75 0 -118 -39.5t-43 -107.5v-376q0 -68 43 -107.5t118 -39.5z" />
<glyph unicode="&#x153;" d="M485 163h20v-50q0 -54 -32 -87t-87 -33q-85 0 -111 75q-28 -75 -109 -75q-55 0 -87.5 36t-32.5 95v274q0 59 32 95.5t88 36.5q83 0 109 -77q27 77 110 77q55 0 87 -35t32 -91v-139h-219v-145q0 -49 26.5 -78t74.5 -29q47 0 73 27.5t26 72.5v50zM265 126v271 q0 52 -26 82.5t-73 30.5q-48 0 -74 -30.5t-26 -82.5v-271q0 -52 26 -82.5t74 -30.5q47 0 73 30.5t26 82.5zM385 510q-47 0 -73.5 -30.5t-26.5 -82.5v-112h199v118q0 48 -26 77.5t-73 29.5z" />
<glyph unicode="&#x178;" d="M208 905v-60h-60v60h60zM398 905v-60h-60v60h60zM285 383v-363h165v-20h-350v20h165v361l-220 330h25l205 -309l204 309h25z" />
<glyph unicode="&#x2c6;" d="M455 597h-28l-101 104l-101 -104h-28l120 124h18z" />
<glyph unicode="&#x2dc;" d="M332 697q0 -35 -17 -58t-42 -23q-23 0 -77 36q-49 32 -65 32q-17 0 -28 -17t-11 -44h-20q0 35 16.5 58t42.5 23q24 0 76 -36q48 -32 66 -32q17 0 28 17t11 44h20z" />
<glyph unicode="&#x2000;" horiz-adv-x="473" />
<glyph unicode="&#x2001;" horiz-adv-x="946" />
<glyph unicode="&#x2002;" horiz-adv-x="473" />
<glyph unicode="&#x2003;" horiz-adv-x="946" />
<glyph unicode="&#x2004;" horiz-adv-x="315" />
<glyph unicode="&#x2005;" horiz-adv-x="236" />
<glyph unicode="&#x2006;" horiz-adv-x="157" />
<glyph unicode="&#x2007;" horiz-adv-x="157" />
<glyph unicode="&#x2008;" horiz-adv-x="118" />
<glyph unicode="&#x2009;" horiz-adv-x="189" />
<glyph unicode="&#x200a;" horiz-adv-x="52" />
<glyph unicode="&#x2010;" d="M142 331h267v-20h-267v20z" />
<glyph unicode="&#x2011;" d="M142 331h267v-20h-267v20z" />
<glyph unicode="&#x2012;" d="M142 331h267v-20h-267v20z" />
<glyph unicode="&#x2013;" d="M106 330h339v-20h-339v20z" />
<glyph unicode="&#x2014;" d="M56 330h439v-20h-439v20z" />
<glyph unicode="&#x2018;" d="M311 710l-49 -160h37v-60h-60v54l52 166h20z" />
<glyph unicode="&#x2019;" d="M251 710h60v-54l-52 -166h-20l49 160h-37v60z" />
<glyph unicode="&#x201a;" d="M251 60h60v-54l-52 -166h-20l49 160h-37v60z" />
<glyph unicode="&#x201c;" d="M225 710h20l-49 -160h37v-60h-60v54zM377 710l-49 -160h37v-60h-60v54l52 166h20z" />
<glyph unicode="&#x201d;" d="M185 650v60h60v-54l-52 -166h-20l49 160h-37zM317 710h60v-54l-52 -166h-20l49 160h-37v60z" />
<glyph unicode="&#x201e;" d="M185 0v60h60v-54l-52 -166h-20l49 160h-37zM317 60h60v-54l-52 -166h-20l49 160h-37v60z" />
<glyph unicode="&#x2022;" d="M323 370v-96h-96v96h96z" />
<glyph unicode="&#x2026;" d="M164 60v-60h-60v60h60zM305 60v-60h-60v60h60zM446 60v-60h-60v60h60z" />
<glyph unicode="&#x202f;" horiz-adv-x="189" />
<glyph unicode="&#x2039;" d="M198 320l172 -195l-15 -14l-184 209l184 209l15 -14z" />
<glyph unicode="&#x203a;" d="M352 321l-172 195l15 14l184 -209l-184 -209l-15 14z" />
<glyph unicode="&#x205f;" horiz-adv-x="236" />
<glyph unicode="&#x20ac;" d="M463 507h-20v38q0 72 -38.5 114t-103.5 42q-64 0 -102.5 -42.5t-38.5 -113.5v-99h206v-20h-206v-121h206v-20h-206v-118q0 -72 38 -114.5t103 -42.5t103.5 42.5t38.5 114.5v57h20v-57q0 -80 -44.5 -128.5t-117.5 -48.5t-117 48.5t-44 128.5v118h-72v20h72v121h-72v20h72 v99q0 80 44 128t117 48t117.5 -48t44.5 -128v-38z" />
<glyph unicode="&#x2122;" d="M39 691v20h179v-20h-80v-264h-20v264h-79zM454 711h17v-284h-20v240l-84 -138h-7l-85 140v-242h-20v284h17l91 -151z" />
<glyph unicode="&#x25fc;" horiz-adv-x="520" d="M0 520h520v-520h-520v520z" />
<glyph unicode="&#xfb01;" d="M241 695q-38 0 -59.5 -21.5t-21.5 -61.5v-92h285v-520h-20v500h-265v-500h-20v500h-91v20h91v94q0 45 27 73t72 28h206v-20h-204z" />
<glyph unicode="&#xfb02;" d="M239 715h206v-715h-20v695h-184q-38 0 -59.5 -21.5t-21.5 -61.5v-92h91v-20h-91v-500h-20v500h-91v20h91v94q0 45 27 73t72 28z" />
</font>
</defs>
</svg>
